PathFileType	4	(X/Y/Z)	 2.8Hzhigh3min.trc
DataRate	CameraRate	NumFrames	NumMarkers	Units	OrigDataRate	OrigDataStartFrame	OrigNumFrames
200	200	11	35	m	200	626	1000
Frame#	Time	C7			LSH			RSH			MAN			RASI			LASI			HIPR			HIPL			RPSI			LPSI			COX			RTHI1			RTHI2			RTHI3			RTHI4			RSHA1			RSHA2			RSHA3			RSHA4			RHEEL			RMET5			RMET1			RTOE			LTHI1			LTHI2			LTHI3			LTHI4			LSHA1			LSHA2			LSHA3			LSHA4			LHEEL			LMET5			LMET1			LTOE			
		X1	Y1	Z1	X2	Y2	Z2	X3	Y3	Z3	X4	Y4	Z4	X5	Y5	Z5	X6	Y6	Z6	X7	Y7	Z7	X8	Y8	Z8	X9	Y9	Z9	X10	Y10	Z10	X11	Y11	Z11	X12	Y12	Z12	X13	Y13	Z13	X14	Y14	Z14	X15	Y15	Z15	X16	Y16	Z16	X17	Y17	Z17	X18	Y18	Z18	X19	Y19	Z19	X20	Y20	Z20	X21	Y21	Z21	X22	Y22	Z22	X23	Y23	Z23	X24	Y24	Z24	X25	Y25	Z25	X26	Y26	Z26	X27	Y27	Z27	X28	Y28	Z28	X29	Y29	Z29	X30	Y30	Z30	X31	Y31	Z31	X32	Y32	Z32	X33	Y33	Z33	X34	Y34	Z34	X35	Y35	Z35	
626	3.1300	-0.309384	1.400161	-0.558482	-0.230150	1.401268	-0.722549	-0.272699	1.376954	-0.390417	-0.175506	1.344271	-0.544056	-0.176336	0.966175	-0.430978	-0.158879	0.955612	-0.660403	-0.242330	1.008773	-0.407809	-0.211682	1.012994	-0.690558	-0.331799	0.985623	-0.505146	-0.322582	0.984680	-0.604672	-0.326930	0.996500	-0.553607	-0.249928	0.758644	-0.375022	-0.222603	0.705825	-0.375823	-0.163869	0.733990	-0.377496	-0.185349	0.791422	-0.377700	-0.264999	0.371006	-0.378918	-0.285804	0.333961	-0.387351	-0.230419	0.313683	-0.402516	-0.214746	0.350537	-0.398186	-0.398269	0.121163	-0.445713	-0.267244	0.032863	-0.392455	-0.237794	0.034574	-0.468872	-0.212463	0.028109	-0.458592	-0.236844	0.764768	-0.723911	-0.218141	0.706116	-0.720407	-0.156449	0.720767	-0.708091	-0.166110	0.780117	-0.710243	-0.301037	0.354689	-0.718258	-0.317929	0.318000	-0.717475	-0.258101	0.298065	-0.715394	-0.248762	0.341240	-0.717073	-0.413068	0.114192	-0.689413	-0.280784	0.034359	-0.732242	-0.246997	0.036751	-0.663695	-0.224944	0.027964	-0.663481	
627	3.1350	-0.308979	1.404930	-0.558425	-0.229883	1.406556	-0.722354	-0.272515	1.381937	-0.390551	-0.175298	1.349387	-0.544160	-0.175886	0.970758	-0.431110	-0.158304	0.960031	-0.660006	-0.241603	1.013348	-0.407724	-0.210500	1.017394	-0.690117	-0.331069	0.990519	-0.504859	-0.321871	0.989511	-0.604527	-0.326335	1.001242	-0.553394	-0.249351	0.763332	-0.374577	-0.222160	0.710442	-0.375549	-0.163366	0.738451	-0.377670	-0.184701	0.795939	-0.377759	-0.265096	0.375091	-0.378421	-0.285583	0.337837	-0.386780	-0.230043	0.317903	-0.401830	-0.214633	0.354915	-0.397607	-0.395591	0.124506	-0.445146	-0.266405	0.033404	-0.392641	-0.237579	0.034526	-0.468966	-0.212531	0.028104	-0.458677	-0.235810	0.769196	-0.723887	-0.217361	0.710456	-0.720162	-0.155750	0.724852	-0.707112	-0.165185	0.784272	-0.709386	-0.301193	0.358295	-0.718343	-0.317795	0.321482	-0.717657	-0.257827	0.302016	-0.715330	-0.248815	0.345258	-0.716941	-0.410926	0.117357	-0.689566	-0.279937	0.035022	-0.731849	-0.246734	0.036708	-0.663481	-0.224987	0.027968	-0.663397	
628	3.1400	-0.308586	1.409840	-0.558374	-0.229631	1.412016	-0.722131	-0.272375	1.387138	-0.390727	-0.175140	1.354736	-0.544258	-0.175474	0.975570	-0.431227	-0.157730	0.964587	-0.659594	-0.241058	1.018180	-0.407713	-0.209597	1.021992	-0.689649	-0.330343	0.995574	-0.504614	-0.321157	0.994492	-0.604375	-0.325724	1.006137	-0.553199	-0.248833	0.768194	-0.374035	-0.221784	0.715227	-0.375175	-0.162935	0.743080	-0.377790	-0.184114	0.800621	-0.377726	-0.265238	0.379312	-0.377818	-0.285358	0.341811	-0.386126	-0.229648	0.322285	-0.400976	-0.214528	0.359465	-0.396867	-0.392702	0.127965	-0.444589	-0.265474	0.033965	-0.392828	-0.237336	0.034494	-0.469046	-0.212608	0.028115	-0.458752	-0.234733	0.773770	-0.723944	-0.216513	0.714930	-0.720000	-0.155009	0.729095	-0.706214	-0.164244	0.788584	-0.708544	-0.301326	0.362006	-0.718516	-0.317615	0.325052	-0.717912	-0.257490	0.306087	-0.715410	-0.248840	0.349404	-0.716961	-0.408598	0.120602	-0.689682	-0.279031	0.035692	-0.731480	-0.246431	0.036671	-0.663226	-0.225022	0.027976	-0.663304	
629	3.1450	-0.308212	1.414837	-0.558331	-0.229397	1.417590	-0.721875	-0.272282	1.392505	-0.390949	-0.175039	1.360273	-0.544343	-0.175097	0.980567	-0.431351	-0.157168	0.969250	-0.659165	-0.240649	1.023267	-0.407755	-0.208949	1.026813	-0.689174	-0.329628	1.000756	-0.504416	-0.320435	0.999583	-0.604229	-0.325105	1.011164	-0.553040	-0.248378	0.773172	-0.373413	-0.221483	0.720133	-0.374698	-0.162583	0.747822	-0.377795	-0.183589	0.805411	-0.377599	-0.265416	0.383601	-0.377166	-0.285153	0.345856	-0.385365	-0.229230	0.326784	-0.399962	-0.214436	0.364132	-0.395968	-0.389595	0.131470	-0.444066	-0.264456	0.034533	-0.393025	-0.237049	0.034490	-0.469098	-0.212679	0.028145	-0.458809	-0.233644	0.778437	-0.724056	-0.215628	0.719504	-0.719918	-0.154247	0.733463	-0.705418	-0.163306	0.793001	-0.707750	-0.301444	0.365770	-0.718765	-0.317393	0.328667	-0.718218	-0.257105	0.310254	-0.715634	-0.248843	0.353637	-0.717127	-0.406094	0.123886	-0.689733	-0.278073	0.036363	-0.731134	-0.246074	0.036656	-0.662924	-0.225041	0.027992	-0.663204	
630	3.1500	-0.307862	1.419861	-0.558301	-0.229186	1.423223	-0.721582	-0.272228	1.397990	-0.391203	-0.175034	1.365970	-0.544395	-0.174754	0.985713	-0.431478	-0.156600	0.973985	-0.658747	-0.240354	1.028567	-0.407853	-0.208513	1.031858	-0.688711	-0.328913	1.006029	-0.504276	-0.319708	1.004748	-0.604097	-0.324469	1.016267	-0.552921	-0.247994	0.778240	-0.372719	-0.221262	0.725116	-0.374136	-0.162301	0.752630	-0.377685	-0.183131	0.810263	-0.377382	-0.265617	0.387886	-0.376542	-0.284946	0.349884	-0.384584	-0.228817	0.331340	-0.398819	-0.214364	0.368883	-0.394922	-0.386317	0.135013	-0.443576	-0.263349	0.035100	-0.393249	-0.236693	0.034528	-0.469109	-0.212724	0.028199	-0.458830	-0.232581	0.783155	-0.724202	-0.214739	0.724147	-0.719914	-0.153493	0.737923	-0.704735	-0.162399	0.797491	-0.707026	-0.301553	0.369551	-0.719074	-0.317137	0.332291	-0.718555	-0.256677	0.314485	-0.715989	-0.248831	0.357925	-0.717436	-0.403420	0.127187	-0.689711	-0.277070	0.037038	-0.730813	-0.245656	0.036680	-0.662574	-0.225028	0.028017	-0.663098	
631	3.1550	-0.307538	1.424864	-0.558281	-0.229007	1.428881	-0.721239	-0.272217	1.403529	-0.391528	-0.175038	1.371685	-0.544460	-0.174450	0.990953	-0.431621	-0.156040	0.978749	-0.658333	-0.240110	1.034061	-0.408008	-0.208238	1.037108	-0.688281	-0.328194	1.011359	-0.504195	-0.318972	1.009956	-0.603986	-0.323822	1.021408	-0.552850	-0.247676	0.783349	-0.371990	-0.221123	0.730130	-0.373503	-0.162080	0.757462	-0.377382	-0.182739	0.815142	-0.377081	-0.265863	0.392140	-0.375949	-0.284745	0.353885	-0.383806	-0.228420	0.335910	-0.397559	-0.214345	0.373639	-0.393770	-0.382862	0.138544	-0.443114	-0.262163	0.035668	-0.393504	-0.236229	0.034632	-0.469069	-0.212717	0.028278	-0.458799	-0.231571	0.787901	-0.724374	-0.213881	0.728831	-0.720001	-0.152766	0.742447	-0.704182	-0.161548	0.802031	-0.706400	-0.301657	0.373324	-0.719427	-0.316856	0.335900	-0.718898	-0.256219	0.318718	-0.716450	-0.248812	0.362235	-0.717878	-0.400579	0.130492	-0.689609	-0.276024	0.037714	-0.730508	-0.245169	0.036754	-0.662183	-0.224966	0.028058	-0.662992	
632	3.1600	-0.307243	1.429805	-0.558270	-0.228865	1.434518	-0.720845	-0.272236	1.409072	-0.391913	-0.175084	1.377391	-0.544529	-0.174186	0.996229	-0.431781	-0.155489	0.983507	-0.657918	-0.239882	1.039685	-0.408219	-0.208074	1.042518	-0.687888	-0.327480	1.016710	-0.504172	-0.318224	1.015166	-0.603900	-0.323178	1.026566	-0.552839	-0.247421	0.788441	-0.371254	-0.221070	0.735127	-0.372810	-0.161934	0.762258	-0.376975	-0.182408	0.819996	-0.376715	-0.266204	0.396351	-0.375355	-0.284619	0.357843	-0.382957	-0.228050	0.340459	-0.396205	-0.214402	0.378349	-0.392549	-0.379202	0.142037	-0.442703	-0.260913	0.036239	-0.393789	-0.235664	0.034840	-0.468943	-0.212625	0.028398	-0.458688	-0.230642	0.792650	-0.724561	-0.213089	0.733534	-0.720170	-0.152092	0.747004	-0.703763	-0.160773	0.806589	-0.705882	-0.301770	0.377051	-0.719801	-0.316562	0.339470	-0.719224	-0.255739	0.322930	-0.717001	-0.248801	0.366520	-0.718427	-0.397585	0.133784	-0.689421	-0.274937	0.038398	-0.730213	-0.244601	0.036894	-0.661768	-0.224834	0.028118	-0.662890	
633	3.1650	-0.306982	1.434650	-0.558264	-0.228775	1.440094	-0.720394	-0.272277	1.414572	-0.392338	-0.175175	1.383039	-0.544601	-0.173951	1.001476	-0.431966	-0.154959	0.988223	-0.657500	-0.239653	1.045365	-0.408477	-0.207978	1.048031	-0.687539	-0.326772	1.022050	-0.504191	-0.317464	1.020347	-0.603844	-0.322540	1.031710	-0.552877	-0.247235	0.793489	-0.370542	-0.221096	0.740083	-0.372080	-0.161861	0.766980	-0.376471	-0.182129	0.824793	-0.376298	-0.266661	0.400469	-0.374756	-0.284586	0.361727	-0.382085	-0.227715	0.344936	-0.394785	-0.214573	0.382970	-0.391320	-0.375377	0.145458	-0.442310	-0.259671	0.036805	-0.394054	-0.234980	0.035182	-0.468722	-0.212422	0.028560	-0.458476	-0.229814	0.797388	-0.724751	-0.212391	0.738240	-0.720414	-0.151496	0.751573	-0.703486	-0.160083	0.811140	-0.705478	-0.301901	0.380699	-0.720159	-0.316262	0.342957	-0.719508	-0.255254	0.327097	-0.717627	-0.248805	0.370753	-0.719062	-0.394455	0.137050	-0.689163	-0.273801	0.039109	-0.729922	-0.243952	0.037115	-0.661349	-0.224616	0.028202	-0.662801	
634	3.1700	-0.306758	1.439364	-0.558252	-0.228746	1.445561	-0.719884	-0.272331	1.419983	-0.392798	-0.175290	1.388571	-0.544684	-0.173744	1.006632	-0.432170	-0.154442	0.992862	-0.657081	-0.239374	1.051071	-0.408797	-0.207912	1.053574	-0.687226	-0.326046	1.027340	-0.504257	-0.316693	1.025472	-0.603818	-0.321894	1.036770	-0.552942	-0.247112	0.798472	-0.369866	-0.221207	0.744950	-0.371335	-0.161855	0.771608	-0.375881	-0.181902	0.829496	-0.375843	-0.267240	0.404465	-0.374192	-0.284614	0.365452	-0.381316	-0.227430	0.349300	-0.393338	-0.214856	0.387464	-0.390116	-0.371523	0.148875	-0.441853	-0.258437	0.037406	-0.394282	-0.234186	0.035675	-0.468400	-0.212092	0.028764	-0.458142	-0.229112	0.802105	-0.724947	-0.211810	0.742928	-0.720717	-0.150995	0.756124	-0.703355	-0.159490	0.815679	-0.705194	-0.302054	0.384251	-0.720472	-0.315964	0.346340	-0.719733	-0.254770	0.331181	-0.718303	-0.248835	0.374911	-0.719755	-0.391215	0.140296	-0.688860	-0.272612	0.039864	-0.729632	-0.243228	0.037432	-0.660955	-0.224300	0.028312	-0.662738	
635	3.1750	-0.306570	1.443925	-0.558223	-0.228741	1.450875	-0.719312	-0.272393	1.425251	-0.393316	-0.175352	1.393900	-0.544811	-0.173557	1.011633	-0.432391	-0.153948	0.997388	-0.656658	-0.239024	1.056722	-0.409166	-0.207843	1.059084	-0.686943	-0.325322	1.032549	-0.504359	-0.315914	1.030511	-0.603819	-0.321269	1.041750	-0.553046	-0.247053	0.803335	-0.369245	-0.221399	0.749696	-0.370586	-0.161914	0.776098	-0.375213	-0.181724	0.834063	-0.375363	-0.267963	0.408325	-0.373627	-0.284725	0.369035	-0.380646	-0.227225	0.353528	-0.391899	-0.215255	0.391791	-0.388947	-0.367636	0.152247	-0.441340	-0.257225	0.038085	-0.394438	-0.233277	0.036354	-0.467975	-0.211620	0.029027	-0.457687	-0.228537	0.806790	-0.725129	-0.211363	0.747580	-0.721061	-0.150603	0.760632	-0.703371	-0.159000	0.820178	-0.705027	-0.302230	0.387679	-0.720710	-0.315671	0.349601	-0.719880	-0.254293	0.335154	-0.719005	-0.248892	0.378963	-0.720469	-0.387909	0.143505	-0.688544	-0.271359	0.040681	-0.729337	-0.242424	0.037850	-0.660616	-0.223881	0.028447	-0.662713	
636	3.1800	-0.306420	1.448312	-0.558167	-0.228772	1.456005	-0.718681	-0.272437	1.430359	-0.393808	-0.175530	1.399102	-0.544921	-0.173379	1.016420	-0.432627	-0.153461	1.001775	-0.656258	-0.238606	1.062237	-0.409563	-0.207739	1.064485	-0.686672	-0.324602	1.037651	-0.504479	-0.315131	1.035443	-0.603850	-0.320659	1.046631	-0.553184	-0.247068	0.808047	-0.368692	-0.221680	0.754279	-0.369849	-0.162060	0.780413	-0.374532	-0.181599	0.838460	-0.374869	-0.268797	0.412004	-0.373110	-0.284963	0.372454	-0.380011	-0.227095	0.357597	-0.390488	-0.215733	0.395969	-0.387793	-0.363806	0.155574	-0.440744	-0.256017	0.038896	-0.394492	-0.232292	0.037218	-0.467430	-0.210995	0.029354	-0.457093	-0.228104	0.811430	-0.725292	-0.211061	0.752183	-0.721425	-0.150329	0.765071	-0.703523	-0.158612	0.824613	-0.704967	-0.302427	0.390962	-0.720849	-0.315381	0.352720	-0.719942	-0.253829	0.339011	-0.719717	-0.248977	0.382885	-0.721166	-0.384596	0.146669	-0.688264	-0.270035	0.041599	-0.729047	-0.241532	0.038384	-0.660354	-0.223350	0.028618	-0.662735	
